Land_normalized_Motion_pl13
version=1
nRows=14
nColumns=43
inDegrees=yes
endheader
time		pelvis_tilt		pelvis_list		pelvis_rotation		pelvis_tx		pelvis_ty		pelvis_tz		hip_flexion_r		hip_adduction_r		hip_rotation_r		knee_angle_r		ankle_angle_r		subtalar_angle_r		mtp_angle_r		hip_flexion_l		hip_adduction_l		hip_rotation_l		knee_angle_l		ankle_angle_l		subtalar_angle_l		mtp_angle_l		lumbar_extension		lumbar_bending		lumbar_rotation		neck_flexion		neck_lateral_bending		neck_rotation		arm_flex_r		arm_add_r		arm_rot_r		elbow_flex_r		pro_sup_r		wrist_flex_r		wrist_dev_r		hand_finger_flex_r		arm_flex_l		arm_add_l		arm_rot_l		elbow_flex_l		pro_sup_l		wrist_flex_l		wrist_dev_l		hand_finger_flex_l		
1.597500		2.575361		9.977471		87.327717		0.033367		1.027666		0.606903		23.671545		-2.199294		-11.236863		-26.734292		-18.476381		1.713120		2.327765		24.619916		-9.601574		-8.974114		-29.604227		-26.009581		7.703790		7.938370		-37.009074		1.572874		6.277098		-22.086577		0.028797		-4.769110		-58.357945		-2.426164		-27.135163		52.882063		111.399104		-2.076209		-20.126320		-11.727519		-60.871625		-7.608579		-18.350625		39.179003		116.967996		-27.809648		-13.013019		-16.447915		
1.600480		2.481788		9.669139		87.482353		0.032805		1.014263		0.602901		25.006672		-2.362120		-10.614337		-28.647827		-18.468346		1.805545		2.358693		26.076732		-9.376779		-7.908068		-31.545370		-26.142207		7.292125		7.529983		-36.974249		1.602432		6.206755		-21.418974		-0.012285		-4.823515		-57.691917		-2.480583		-27.222988		52.981068		111.599928		-2.114185		-20.298002		-11.675115		-60.098332		-7.665336		-18.609760		39.241772		117.257135		-28.206818		-13.206492		-16.352330		
1.603460		2.486851		9.669953		87.589959		0.032550		1.001574		0.598813		25.981051		-2.392578		-9.982948		-30.512322		-18.757810		1.992407		2.305715		27.039471		-9.278824		-7.049013		-33.173734		-26.515807		7.144535		7.315305		-37.312493		1.658004		6.194867		-20.667068		-0.028618		-4.841902		-56.923308		-2.593753		-27.224654		53.095972		111.709234		-2.116585		-20.414044		-11.642524		-59.231754		-7.767558		-18.770716		39.330105		117.401300		-28.468304		-13.203116		-16.303611		
1.606439		2.450143		9.467427		87.769068		0.032217		0.988244		0.594850		27.223294		-2.448386		-9.291649		-32.397956		-19.051551		2.146918		2.236730		28.350393		-9.091175		-6.132812		-34.936017		-26.878458		6.870976		7.079732		-37.439203		1.720294		6.137756		-19.848371		-0.052531		-4.857102		-56.169392		-2.704445		-27.234285		53.269370		111.851514		-2.114188		-20.614961		-11.594835		-58.395850		-7.906776		-18.922178		39.502552		117.650922		-28.825486		-13.266654		-16.231915		
1.609419		2.471665		9.732361		87.870647		0.031831		0.975838		0.590814		27.865584		-2.425655		-8.593739		-34.084600		-19.386633		2.363075		2.255275		29.038593		-8.985073		-5.455945		-36.531734		-27.114217		6.925445		7.155894		-38.128923		1.787515		6.168889		-18.783370		-0.067406		-4.852320		-55.387974		-2.900830		-27.193132		53.552030		111.908618		-2.099555		-20.742506		-11.574800		-57.519838		-8.048908		-18.997522		39.840609		117.730531		-29.037529		-13.294110		-16.247014		
1.612399		2.473454		9.789749		88.042219		0.031541		0.962849		0.586807		28.783453		-2.395387		-7.867207		-35.831420		-19.534688		2.518560		2.431737		30.024132		-8.831959		-4.759152		-38.196823		-27.045688		6.909192		7.504735		-38.590285		1.860997		6.154954		-17.711282		-0.060539		-4.833132		-54.601964		-3.084411		-27.130658		53.850133		111.996228		-2.070390		-20.961286		-11.553048		-56.668250		-8.238229		-19.059352		40.230488		117.882296		-29.346746		-13.361417		-16.280075		
1.615379		2.481529		9.572172		88.151026		0.031274		0.949183		0.582689		30.056419		-2.317383		-7.173086		-37.663512		-19.369938		2.567575		3.505572		31.339422		-8.683425		-4.059535		-39.973883		-26.561441		6.952009		9.124850		-38.697151		1.916937		6.126036		-16.882811		-0.025690		-4.806829		-53.784797		-3.344877		-27.101939		54.142516		112.148804		-2.031594		-21.214481		-11.602775		-55.877950		-8.388374		-19.073898		40.641779		118.119666		-29.662900		-13.397560		-16.232916		
1.618359		2.494888		8.618263		88.236645		0.031340		0.933766		0.578526		32.249974		-2.179299		-6.519194		-39.711163		-19.122308		2.451254		7.777170		33.595913		-8.607374		-3.362603		-42.015687		-25.975978		7.088774		15.239543		-37.889339		1.960799		6.115449		-16.521730		0.033881		-4.751010		-53.021276		-3.570785		-27.105986		54.424807		112.499168		-1.899216		-21.549790		-11.900486		-55.205267		-8.574741		-19.148072		41.084155		118.632045		-30.125652		-13.307913		-15.871018		
1.621338		2.579514		8.861286		88.272179		0.031241		0.921077		0.574013		32.835876		-1.949697		-5.774121		-41.483744		-17.306058		3.093654		9.829730		34.275075		-8.607555		-2.775356		-43.944383		-23.389073		8.302144		17.652881		-38.493873		2.010226		6.110200		-15.710020		0.109623		-4.687637		-52.127615		-3.934386		-26.983645		54.795218		112.464069		-1.841938		-21.716920		-12.102803		-54.413537		-8.721430		-19.111297		41.551025		118.631959		-30.387813		-13.512932		-15.942148		
1.624318		2.690595		8.797286		88.285044		0.031244		0.907675		0.569779		33.820347		-1.622486		-5.036622		-43.467080		-14.876512		3.377100		12.692574		35.354151		-8.614144		-2.096496		-46.096134		-20.306194		9.288502		20.678643		-38.785744		2.087737		6.171246		-14.803429		0.139284		-4.632737		-51.245565		-4.322923		-26.819275		55.233700		112.358055		-1.757619		-21.861263		-12.428987		-53.586620		-8.930502		-19.010140		42.040759		118.656303		-30.653132		-13.701793		-15.980205		
1.627298		2.774117		8.954722		88.293864		0.031131		0.894702		0.565587		34.575837		-1.315047		-4.470315		-45.692588		-11.534047		3.134265		14.222846		36.141704		-8.551012		-1.517531		-48.389235		-16.367991		9.612828		22.181111		-39.319207		2.142757		6.200222		-13.948327		0.173704		-4.580044		-50.424285		-4.684667		-26.762405		55.904314		112.221476		-1.743038		-22.071456		-12.606802		-52.825424		-9.133726		-18.896229		42.698705		118.770166		-30.931105		-13.983253		-16.036540		
1.630278		2.906304		8.984593		88.272869		0.031176		0.881594		0.561575		35.418744		-0.900102		-3.902137		-48.021257		-7.353532		3.084714		15.108691		37.128742		-8.565101		-0.895739		-50.946235		-11.872337		10.355252		22.955293		-39.736964		2.218203		6.290269		-13.025988		0.200119		-4.505141		-49.527209		-5.094785		-26.643353		56.529915		111.972926		-1.745719		-22.227291		-12.752172		-51.978659		-9.381339		-18.744590		43.289083		118.923348		-31.259421		-14.233643		-16.096152		
1.633258		3.088150		8.866362		88.224413		0.031284		0.868391		0.557775		36.402004		-0.434443		-3.506696		-50.400708		-2.816768		3.010619		15.151867		38.349546		-8.661281		-0.282589		-53.712071		-7.274643		11.191323		22.921506		-40.023971		2.318201		6.433481		-12.107671		0.219785		-4.430786		-48.575005		-5.564020		-26.455146		57.135395		111.508876		-1.786516		-22.327224		-12.908108		-51.045270		-9.644835		-18.505093		43.826762		119.124872		-31.689899		-14.427544		-16.129977		
1.636237		3.345497		8.491612		88.193605		0.031446		0.854793		0.554341		37.719657		0.076595		-3.341472		-52.902056		2.103654		2.826559		11.368979		39.993537		-8.801784		0.398993		-56.691369		-2.697268		12.037539		19.504766		-40.071480		2.509173		6.658289		-11.121169		0.204127		-4.366770		-47.658819		-6.140723		-26.008590		57.784776		110.444431		-2.016363		-22.389155		-13.021382		-50.052060		-9.995860		-18.071405		44.370846		119.432555		-32.436167		-14.476592		-15.886746		
